<svg width="200" height="200" viewBox="0 0 200 200" fill="none" xmlns="http://www.w3.org/2000/svg">
<path d="M100 0C80.2219 0 60.8879 5.8649 44.443 16.853C27.9981 27.8412 15.1809 43.459 7.61209 61.7316C0.0433288 80.0042 -1.937 100.111 1.92152 119.509C5.78004 138.907 15.3041 156.725 29.2894 170.711C43.2746 184.696 61.0929 194.22 80.491 198.078C99.8891 201.937 119.996 199.957 138.268 192.388C156.541 184.819 172.159 172.002 183.147 155.557C194.135 139.112 200 119.778 200 100C199.975 73.4859 189.432 48.0647 170.684 29.3164C151.935 10.5681 126.514 0.0245161 100 0ZM100 177.778C84.617 177.778 69.5795 173.216 56.789 164.67C43.9985 156.123 34.0296 143.976 28.1427 129.764C22.2559 115.552 20.7157 99.9137 23.7167 84.8263C26.7178 69.7389 34.1254 55.8802 45.0028 45.0028C55.8803 34.1254 69.7389 26.7178 84.8263 23.7167C99.9137 20.7156 115.552 22.2559 129.764 28.1427C143.976 34.0295 156.124 43.9985 164.67 56.789C173.216 69.5795 177.778 84.617 177.778 100C177.753 120.62 169.551 140.389 154.97 154.97C140.389 169.551 120.62 177.753 100 177.778ZM137.5 78.2407L115.741 100L137.5 121.759C138.536 122.791 139.358 124.018 139.919 125.369C140.479 126.719 140.768 128.167 140.768 129.63C140.768 131.092 140.479 132.54 139.919 133.891C139.358 135.241 138.536 136.468 137.5 137.5C135.403 139.57 132.576 140.73 129.63 140.73C126.684 140.73 123.856 139.57 121.759 137.5L100 115.741L78.2408 137.5C76.144 139.57 73.3165 140.73 70.3704 140.73C67.4243 140.73 64.5968 139.57 62.5 137.5C61.4642 136.468 60.6423 135.241 60.0815 133.891C59.5207 132.54 59.232 131.092 59.232 129.63C59.232 128.167 59.5207 126.719 60.0815 125.369C60.6423 124.018 61.4642 122.791 62.5 121.759L84.2593 100L62.5 78.2407C60.4127 76.1534 59.24 73.3223 59.24 70.3704C59.24 67.4184 60.4127 64.5873 62.5 62.5C64.5874 60.4126 67.4184 59.24 70.3704 59.24C73.3224 59.24 76.1534 60.4126 78.2408 62.5L100 84.2592L121.759 62.5C123.847 60.4126 126.678 59.24 129.63 59.24C132.582 59.24 135.413 60.4126 137.5 62.5C139.587 64.5873 140.76 67.4184 140.76 70.3704C140.76 73.3223 139.587 76.1534 137.5 78.2407Z" fill="#EC3535"/>
</svg>
