<svg xmlns="http://www.w3.org/2000/svg" version="1.1"
   xmlns:xlink="http://www.w3.org/1999/xlink" width="512" height="512" x="0" y="0" viewBox="0 0 512 512" style="enable-background:new 0 0 512 512" xml:space="preserve" class="">
   <g>
      <g fill-rule="evenodd" clip-rule="evenodd">
         <path fill="#c0392b" d="M241.975 6.005h165.401v202.288H241.975z" opacity="1" data-original="#1f86ce" class=""></path>
         <path fill="#e74c3c" d="M217.716 263.753 79.93 204.68 163.85 8.936l137.786 59.072z" opacity="1" data-original="#26a6fe" class=""></path>
         <path fill="#dba42e" d="M324.083 505.995h97.616c20.372 0 37.903-7.904 51.387-23.17 13.483-15.271 19.158-33.646 16.641-53.856l-38.591-309.574H332.797l-38.079 305.472a94.808 94.808 0 0 0 29.365 81.128" opacity="1" data-original="#dba42e" class=""></path>
         <path fill="#ce9633" d="M416.99 119.395h-16.666v287.517l-12.695 36.671a8.29 8.29 0 0 0 1.8 8.384l-.01.013 19.036 20.23c3.149 3.337 8.41 3.499 11.752.354 3.343-3.144 3.502-8.41.357-11.748l-15.604-16.581 11.277-32.568a8.285 8.285 0 0 0 .752-3.463V119.395z" opacity="1" data-original="#ce9633" class=""></path>
         <path fill="#f2b633" d="M395.616 505.995H90.3c-20.367 0-37.903-7.904-51.385-23.17-13.481-15.271-19.161-33.646-16.641-53.856l38.587-309.574h305.316L327.59 428.969c-2.519 20.21 3.158 38.586 16.64 53.856 13.482 15.266 31.015 23.17 51.386 23.17" opacity="1" data-original="#f2b633"></path>
         <path fill="#dba42e" d="M113.891 185.791c.338-4.586 4.333-8.021 8.918-7.683a8.326 8.326 0 0 1 7.682 8.923 64.954 64.954 0 0 0 .064 10.652c.316 3.541.907 6.955 1.767 10.197 3.313 12.525 10.443 22.703 19.927 29.791 9.787 7.313 22.121 11.375 35.415 11.375 13.941 0 27.455-4.299 39.126-11.636 12.131-7.625 22.275-18.499 28.874-31.234a76.686 76.686 0 0 0 4.478-10.491l.142-.381a72.525 72.525 0 0 0 2.643-10.326 8.326 8.326 0 0 1 9.634-6.773c4.531.794 7.561 5.107 6.772 9.631a88.907 88.907 0 0 1-3.304 12.83l-.131.426a93.483 93.483 0 0 1-5.455 12.702c-7.97 15.382-20.195 28.503-34.804 37.682-14.28 8.976-30.851 14.237-47.977 14.237-16.926 0-32.734-5.242-45.375-14.695-12.403-9.271-21.724-22.561-26.048-38.902a77.814 77.814 0 0 1-2.287-12.999 81.564 81.564 0 0 1-.061-13.326" opacity="1" data-original="#dba42e" class=""></path>
      </g>
   </g>
</svg>