<svg width="200" height="200" viewBox="0 0 200 200" fill="none" xmlns="http://www.w3.org/2000/svg">
<path d="M194.281 27.3419C191.339 24.3946 186.565 24.3895 183.623 27.3293L93.1961 117.518L60.5703 82.0829C57.7512 79.0227 52.9848 78.8243 49.9196 81.643C46.8567 84.4622 46.6606 89.2309 49.4797 92.2938L87.4196 133.497C88.809 135.007 90.7535 135.884 92.8039 135.927C92.859 135.929 92.9121 135.929 92.9649 135.929C94.9574 135.929 96.8742 135.138 98.2864 133.731L194.266 38.0024C197.216 35.0629 197.221 30.2891 194.281 27.3419Z" fill="#3FD171"/>
<path d="M192.462 92.4621C188.299 92.4621 184.925 95.8363 184.925 100C184.925 146.829 146.829 184.925 100 184.925C53.1734 184.925 15.0754 146.829 15.0754 100C15.0754 53.1734 53.1734 15.0754 100 15.0754C104.163 15.0754 107.538 11.7012 107.538 7.53789C107.538 3.37422 104.163 0 100 0C44.8594 0 0 44.8594 0 100C0 155.138 44.8594 200 100 200C155.138 200 200 155.138 200 100C200 95.8367 196.626 92.4621 192.462 92.4621Z" fill="#3FD171"/>
</svg>
