<svg width="200" height="200" viewBox="0 0 200 200" fill="none" xmlns="http://www.w3.org/2000/svg">
<path d="M88.8889 144.444C88.8889 138.308 93.8635 133.333 100 133.333C106.136 133.333 111.111 138.308 111.111 144.444C111.111 150.581 106.136 155.556 100 155.556C93.8635 155.556 88.8889 150.581 88.8889 144.444ZM88.8889 55.5556C88.8889 49.4191 93.8635 44.4444 100 44.4444C106.136 44.4444 111.111 49.4191 111.111 55.5556V100C111.111 106.136 106.136 111.111 100 111.111C93.8635 111.111 88.8889 106.136 88.8889 100V55.5556ZM100 0C73.4784 0 48.043 10.5357 29.2893 29.2893C10.5357 48.043 0 73.4784 0 100C0 126.522 10.5357 151.957 29.2893 170.711C48.043 189.464 73.4784 200 100 200C126.522 200 151.957 189.464 170.711 170.711C189.464 151.957 200 126.522 200 100C200 73.4784 189.464 48.043 170.711 29.2893C151.957 10.5357 126.522 0 100 0ZM100 177.778C57.1111 177.778 22.2222 142.889 22.2222 100C22.2222 57.1111 57.1111 22.2222 100 22.2222C142.889 22.2222 177.778 57.1111 177.778 100C177.778 142.889 142.889 177.778 100 177.778Z" fill="#E9C713"/>
</svg>
